<?xml version="1.0" encoding="utf-8"?>
<!-- Generator: Adobe Illustrator 16.0.0, SVG Export Plug-In . SVG Version: 6.00 Build 0)  -->
<!DOCTYPE svg PUBLIC "-//W3C//DTD SVG 1.1//EN" "http://www.w3.org/Graphics/SVG/1.1/DTD/svg11.dtd">
<svg version="1.1" id="Layer_0_xA0_Image_1_" xmlns="http://www.w3.org/2000/svg" xmlns:xlink="http://www.w3.org/1999/xlink"
	 x="0px" y="0px" width="326.4px" height="326.4px" viewBox="0 0 326.4 326.4" enable-background="new 0 0 326.4 326.4"
	 xml:space="preserve">
<g>
	<path d="M84.407,288.049c-7.403,0-13.854-3.1-17.208-8.033l6.39-5.695c3.1,3.605,7.086,5.062,11.324,5.062
		c5.25,0,7.718-1.456,7.718-4.808c0-2.847-1.518-4.112-9.869-6.01c-8.161-1.898-13.856-4.493-13.856-13.222
		c0-8.036,7.086-12.969,15.817-12.969c6.895,0,11.957,2.592,16.132,6.957l-6.39,6.201c-2.847-2.912-6.009-4.555-10.058-4.555
		c-4.745,0-6.327,2.023-6.327,3.983c0,2.786,1.898,3.671,8.921,5.315c7.022,1.646,14.803,4.05,14.803,13.665
		C101.804,282.358,96.49,288.049,84.407,288.049z"/>
	<path d="M114.399,251.418c-2.72,0-4.998-2.275-4.998-4.996c0-2.719,2.277-4.999,4.998-4.999c2.721,0,4.998,2.28,4.998,4.999
		C119.397,249.143,117.12,251.418,114.399,251.418z M110.035,287.353v-33.214h8.731v33.214H110.035z"/>
	<path d="M127.878,287.353V245.6l8.729-4.366v46.119H127.878z"/>
	<path d="M172.354,273.563H152.49c0.315,4.556,3.668,6.265,6.833,6.265c2.403,0,4.428-0.89,5.693-2.343l6.2,5.189
		c-2.657,3.415-7.466,5.375-11.894,5.375c-9.555,0-15.627-6.769-15.627-17.271c0-10.184,6.39-17.335,14.804-17.335
		c8.857,0,13.982,7.847,13.982,17.335C172.482,272.046,172.418,272.93,172.354,273.563z M158.057,261.036
		c-3.164,0-5.125,2.595-5.441,5.948h11.388C163.75,264.009,161.979,261.036,158.057,261.036z"/>
	<path d="M191.528,288.049c-5.25,0-10.376-1.52-13.919-3.856l2.912-6.645c3.543,1.961,7.275,3.036,11.514,3.036
		c3.416,0,4.427-0.822,4.427-2.531c0-1.518-1.2-2.276-4.871-3.352c-7.97-2.404-13.094-4.367-13.094-11.387
		c0-6.896,5.502-9.872,13.283-9.872c4.177,0,8.732,1.268,12.275,3.227l-2.784,6.896c-3.29-1.77-6.895-2.654-9.681-2.654
		c-3.543,0-4.49,0.695-4.49,2.149c0,1.393,1.013,1.962,6.894,3.858c5.949,1.963,11.073,4.115,11.073,10.756
		C205.067,285.329,198.992,288.049,191.528,288.049z"/>
	<path d="M217.47,251.418c-2.72,0-4.995-2.275-4.995-4.996c0-2.719,2.275-4.999,4.995-4.999c2.721,0,5,2.28,5,4.999
		C222.47,249.143,220.191,251.418,217.47,251.418z M213.105,287.353v-33.214h8.73v33.214H213.105z"/>
	<path d="M248.914,287.353v-2.214c-1.579,1.646-4.364,2.91-7.463,2.91c-6.199,0-12.398-3.796-12.398-11.83
		c0-7.338,5.946-11.008,13.473-11.008c3.038,0,4.999,0.633,6.389,1.329v-1.646c0-2.341-1.579-4.239-4.743-4.239
		c-3.983,0-6.072,0.57-9.108,2.215l-3.354-6.073c3.859-2.214,7.084-3.354,12.463-3.354c8.037,0,13.476,4.176,13.476,11.641v22.27
		H248.914z M248.914,273.437c-1.517-0.95-2.971-1.391-6.071-1.391c-3.289,0-5.062,1.517-5.062,4.173c0,2.341,1.33,4.431,5.062,4.431
		c2.847,0,5.126-1.457,6.071-3.036V273.437z"/>
</g>
<g>
	<path d="M85.582,232.254l-5.21-10.508h-5.88v10.508h-5.836v-29.183h13.591c5.503,0,10.048,3.041,10.048,9.255
		c0,4.377-1.876,7.126-5.586,8.585l5.586,11.343H85.582z M82.123,208.739h-7.631v7.506h7.631c2.709,0,4.168-1.251,4.168-3.793
		C86.291,209.826,84.707,208.739,82.123,208.739z"/>
	<path d="M108.668,232.254v-1.459c-1.042,1.083-2.876,1.918-4.919,1.918c-4.085,0-8.172-2.501-8.172-7.795
		c0-4.837,3.92-7.256,8.881-7.256c2,0,3.293,0.417,4.21,0.874v-1.083c0-1.543-1.042-2.795-3.126-2.795
		c-2.627,0-4.002,0.376-6.004,1.46l-2.21-4.002c2.543-1.46,4.669-2.208,8.214-2.208c5.294,0,8.88,2.749,8.88,7.671v14.675H108.668z
		 M108.668,223.082c-1-0.624-1.959-0.917-4.002-0.917c-2.167,0-3.335,1.001-3.335,2.754c0,1.541,0.876,2.917,3.335,2.917
		c1.877,0,3.377-0.959,4.002-2.001V223.082z"/>
	<path d="M122.566,208.574c-1.792,0-3.293-1.501-3.293-3.295c0-1.793,1.501-3.294,3.293-3.294c1.793,0,3.294,1.501,3.294,3.294
		C125.86,207.073,124.359,208.574,122.566,208.574z M119.69,232.254v-21.887h5.753v21.887H119.69z"/>
	<path d="M130.968,232.254v-27.518l5.753-2.876v30.394H130.968z"/>
	<path d="M150.235,232.713c-3.46,0-6.837-1-9.173-2.545l1.918-4.379c2.335,1.294,4.795,2.004,7.587,2.004
		c2.252,0,2.918-0.543,2.918-1.669c0-1-0.792-1.5-3.209-2.208c-5.253-1.586-8.63-2.876-8.63-7.506c0-4.543,3.626-6.502,8.755-6.502
		c2.751,0,5.752,0.831,8.087,2.125l-1.834,4.544c-2.167-1.167-4.544-1.75-6.379-1.75c-2.335,0-2.96,0.458-2.96,1.417
		c0,0.918,0.667,1.291,4.544,2.543c3.919,1.294,7.296,2.711,7.296,7.088C159.157,230.919,155.154,232.713,150.235,232.713z"/>
	<path d="M188.509,232.713c-7.629,0-12.758-5.837-12.758-15.051c0-8.883,5.338-15.051,12.968-15.051
		c5.961,0,9.128,2.793,11.047,7.297l-5.544,2.29c-1.083-2.166-2.418-3.79-5.589-3.79c-4.377,0-6.878,3.835-6.878,9.254
		c0,5.378,2.543,9.339,6.92,9.339c4.005,0,5.381-1.877,5.712-4.42h-4.626v-5.461h10.464v3.834
		C200.225,228.458,195.263,232.713,188.509,232.713z"/>
	<path d="M208.26,208.574c-1.791,0-3.291-1.501-3.291-3.295c0-1.793,1.5-3.294,3.291-3.294c1.794,0,3.294,1.501,3.294,3.294
		C211.554,207.073,210.054,208.574,208.26,208.574z M205.383,232.254v-21.887h5.753v21.887H205.383z"/>
	<path d="M229.357,217.078c-0.914-0.833-2.042-1.416-3.332-1.416c-2.253,0-3.712,0.959-3.712,4.75v11.843h-5.753v-21.887h5.753
		v1.459c1-1.045,2.459-1.918,4.502-1.918c1.876,0,3.294,0.748,4.043,1.541L229.357,217.078z"/>
	<path d="M234.176,232.254v-27.518l5.753-2.876v30.394H234.176z"/>
	<path d="M253.44,232.713c-3.46,0-6.836-1-9.171-2.545l1.918-4.379c2.334,1.294,4.794,2.004,7.588,2.004
		c2.253,0,2.919-0.543,2.919-1.669c0-1-0.793-1.5-3.212-2.208c-5.25-1.586-8.628-2.876-8.628-7.506c0-4.543,3.625-6.502,8.756-6.502
		c2.749,0,5.75,0.831,8.086,2.125l-1.832,4.544c-2.169-1.167-4.546-1.75-6.382-1.75c-2.332,0-2.96,0.458-2.96,1.417
		c0,0.918,0.669,1.291,4.547,2.543c3.918,1.294,7.295,2.711,7.295,7.088C262.364,230.919,258.36,232.713,253.44,232.713z"/>
</g>
<g>
	<path fill-rule="evenodd" clip-rule="evenodd" d="M103.699,114.461h23.046v23.047h-23.127v-22.804
		C103.611,114.59,103.605,114.474,103.699,114.461"/>
	<path fill-rule="evenodd" clip-rule="evenodd" d="M126.828,137.508h23.047v23.128h-23.129v-22.885
		C126.739,137.638,126.732,137.524,126.828,137.508"/>
	<polygon fill-rule="evenodd" clip-rule="evenodd" points="103.618,45.16 149.874,45.16 149.874,68.206 103.618,68.206 
		103.618,114.461 80.57,114.461 80.57,68.206 103.618,68.206 	"/>
	<path fill-rule="evenodd" clip-rule="evenodd" d="M173.002,45.16h46.176c-0.057,7.655,0.104,15.524-0.083,23.046h-46.093
		c-0.057,7.685,0.106,15.582-0.081,23.129c-7.654-0.055-15.527,0.107-23.048-0.08V68.206h23.129V45.16z"/>
	<path fill-rule="evenodd" clip-rule="evenodd" d="M149.875,183.764c0.053-7.683-0.11-15.579,0.08-23.128h23.047v-23.128h23.045
		c0.057-7.654-0.106-15.524,0.084-23.047h23.047c0.054-15.391-0.109-30.997,0.078-46.255h23.05v46.255h-23.128v23.047h-23.131
		c-0.053,7.685,0.11,15.582-0.079,23.128h-22.966v23.128H149.875z"/>
</g>
</svg>
